HIERARCHY
ROOT Hips
{
	OFFSET 0.000000 0.000000 0.000000
	CHANNELS 6 Xposition Yposition Zposition Xrotation Yrotation Zrotation
	JOINT LeftUpLeg_virtual
	{
		OFFSET 0.000000 0.000000 0.000000
		CHANNELS 3 Xrotation Yrotation Zrotation
		JOINT LeftUpLeg
		{
			OFFSET 11.394100 -6.187798 -0.413800
			CHANNELS 3 Xrotation Yrotation Zrotation
			JOINT LeftLeg
			{
				OFFSET 0.430247 -32.302673 3.732800
				CHANNELS 3 Xrotation Yrotation Zrotation
				JOINT LeftFoot
				{
					OFFSET -0.430247 -48.264931 -6.423300
					CHANNELS 3 Xrotation Yrotation Zrotation
					JOINT LeftToeBase
					{
						OFFSET 4.230900 -16.068199 23.438400
						CHANNELS 3 Xrotation Yrotation Zrotation
						JOINT LeftToe_End
						{
							OFFSET 4.510700 0.695400 19.974600
							CHANNELS 3 Xrotation Yrotation Zrotation
							End Site
							{
								OFFSET 0 0 0
							}
						}
					}
				}
			}
		}
	}
	JOINT RightUpLeg_virtual
	{
		OFFSET 0.000000 0.000000 0.000000
		CHANNELS 3 Xrotation Yrotation Zrotation
		JOINT RightUpLeg
		{
			OFFSET -11.333700 -6.187798 -0.413800
			CHANNELS 3 Xrotation Yrotation Zrotation
			JOINT RightLeg
			{
				OFFSET -0.430392 -32.302628 3.733000
				CHANNELS 3 Xrotation Yrotation Zrotation
				JOINT RightFoot
				{
					OFFSET 0.430392 -48.264973 -6.423500
					CHANNELS 3 Xrotation Yrotation Zrotation
					JOINT RightToeBase
					{
						OFFSET -4.230900 -16.068199 23.438400
						CHANNELS 3 Xrotation Yrotation Zrotation
						JOINT RightToe_End
						{
							OFFSET -4.510700 0.695400 19.974600
							CHANNELS 3 Xrotation Yrotation Zrotation
							End Site
							{
								OFFSET 0 0 0
							}
						}
					}
				}
			}
		}
	}
	JOINT Spine_virtual
	{
		OFFSET 0.000000 0.000000 0.000000
		CHANNELS 3 Xrotation Yrotation Zrotation
		JOINT Spine
		{
			OFFSET -0.002400 12.777504 0.315300
			CHANNELS 3 Xrotation Yrotation Zrotation
			JOINT Spine1
			{
				OFFSET -0.002067 5.816869 0.032633
				CHANNELS 3 Xrotation Yrotation Zrotation
				JOINT Spine1_split
				{
					OFFSET -0.002067 5.816869 0.032633
					CHANNELS 3 Xrotation Yrotation Zrotation
					JOINT Spine2
					{
						OFFSET -0.002067 5.816869 0.032633
						CHANNELS 3 Xrotation Yrotation Zrotation
						JOINT Neck_virtual
						{
							OFFSET 0.000000 0.000000 0.000000
							CHANNELS 3 Xrotation Yrotation Zrotation
							JOINT Neck
							{
								OFFSET -0.003700 21.199493 -0.826900
								CHANNELS 3 Xrotation Yrotation Zrotation
								JOINT Head
								{
									OFFSET 0.000000 20.442200 4.834800
									CHANNELS 3 Xrotation Yrotation Zrotation
									JOINT HeadTop_End
									{
										OFFSET 0.000000 34.668396 4.968400
										CHANNELS 3 Xrotation Yrotation Zrotation
										End Site
										{
											OFFSET 0 0 0
										}
									}
								}
							}
						}
						JOINT LeftShoulder_virtual
						{
							OFFSET 0.000000 0.000000 0.000000
							CHANNELS 3 Xrotation Yrotation Zrotation
							JOINT LeftShoulder
							{
								OFFSET 3.288150 8.794197 -1.372250
								CHANNELS 3 Xrotation Yrotation Zrotation
								JOINT LeftShoulder_split
								{
									OFFSET 3.288150 8.794197 -1.372250
									CHANNELS 3 Xrotation Yrotation Zrotation
									JOINT LeftArm
									{
										OFFSET 11.953299 -2.279007 -0.146200
										CHANNELS 3 Xrotation Yrotation Zrotation
										JOINT LeftForeArm
										{
											OFFSET 18.448900 0.000000 0.000000
											CHANNELS 3 Xrotation Yrotation Zrotation
											JOINT LeftHand
											{
												OFFSET 29.527798 0.000000 0.000000
												CHANNELS 3 Xrotation Yrotation Zrotation
												End Site
												{
													OFFSET 0 0 0
												}
											}
										}
									}
								}
							}
						}
						JOINT RightShoulder_virtual
						{
							OFFSET 0.000000 0.000000 0.000000
							CHANNELS 3 Xrotation Yrotation Zrotation
							JOINT RightShoulder
							{
								OFFSET -3.249400 8.794197 -1.372250
								CHANNELS 3 Xrotation Yrotation Zrotation
								JOINT RightShoulder_split
								{
									OFFSET -3.249400 8.794197 -1.372250
									CHANNELS 3 Xrotation Yrotation Zrotation
									JOINT RightArm
									{
										OFFSET -11.953299 -2.279007 -0.146200
										CHANNELS 3 Xrotation Yrotation Zrotation
										JOINT RightForeArm
										{
											OFFSET -18.448900 0.000000 0.000000
											CHANNELS 3 Xrotation Yrotation Zrotation
											JOINT RightHand
											{
												OFFSET -29.527802 0.000000 0.000000
												CHANNELS 3 Xrotation Yrotation Zrotation
												End Site
												{
													OFFSET 0 0 0
												}
											}
										}
									}
								}
							}
						}
					}
				}
			}
		}
	}
}
MOTION
Frames: 9
Frame Time: 0.03333333
1.935479 38.770111 -30.758640 0.000000 0.000000 0.000000 39.803108 -3.659308 6.215468 -73.231560 -36.577015 17.627304 130.870919 -15.637124 -9.092910 29.460921 9.094970 -17.492787 -0.405661 5.453126 38.172701 0.000000 0.000000 0.000000 39.821007 0.651565 3.797800 -55.922618 34.588727 -40.101007 128.427623 17.284193 6.143904 18.641316 15.251606 12.210105 7.444805 21.492572 13.882917 0.000000 0.000000 0.000000 36.355936 1.503221 2.908597 22.679124 4.493505 -6.804517 17.469997 1.832926 -1.065159 -0.752241 -0.075517 1.732344 0.000000 0.000000 0.000000 18.627512 2.234840 -1.325288 4.567183 -1.439994 3.043576 -3.721958 -6.865990 4.902453 0.000000 0.000000 0.000000 16.893204 1.841178 -1.563990 1.080696 -34.600888 -5.357519 0.911325 -2.708783 -0.919853 -59.324236 -42.921844 -53.559249 1.773853 -55.910399 2.454168 0.000000 0.000000 0.000000 16.151599 1.717851 -1.060114 -1.210459 10.723260 4.299606 -0.770463 -5.140088 -1.998996 -46.141186 18.175559 49.453472 -2.927144 67.959658 1.658540 0.000000 0.000000 0.000000 
1.684761 38.124279 -31.361744 0.000000 0.000000 0.000000 37.960982 -4.570512 5.658526 -70.853145 -39.965821 20.442194 130.513632 -17.980126 -9.541004 31.220296 7.891241 -17.341131 -0.850241 5.234714 38.696304 0.000000 0.000000 0.000000 37.779532 0.736924 3.085664 -56.333693 37.503770 -38.931829 129.096039 17.525278 6.469075 20.332111 14.836925 12.901354 6.907088 21.728705 14.008855 0.000000 0.000000 0.000000 34.298092 0.144673 2.972346 22.196867 4.170648 -7.272859 18.670727 1.766622 -1.536086 -0.506974 -0.288367 2.015277 0.000000 0.000000 0.000000 19.735828 2.232915 -1.757625 4.359737 -1.232538 2.508350 -2.019354 -6.450296 5.655946 0.000000 0.000000 0.000000 18.109500 1.817641 -1.969648 0.729810 -31.911839 -7.200771 0.616187 -3.776271 -0.445883 -59.688647 -43.317893 -52.568636 2.045081 -55.855279 3.139194 0.000000 0.000000 0.000000 17.277607 1.653768 -1.472342 -1.112620 9.981410 4.340860 -0.699504 -4.987005 -1.742120 -48.592623 18.935014 51.666249 -2.519154 68.523729 1.270036 0.000000 0.000000 0.000000 
1.486305 37.612900 -32.175831 0.000000 0.000000 0.000000 36.078364 -5.450176 5.015562 -67.745388 -42.992202 23.376896 130.247500 -19.907514 -9.858191 33.224981 6.753056 -17.346688 -1.069763 5.052931 39.184758 0.000000 0.000000 0.000000 35.673880 0.499992 2.430744 -56.771477 39.936953 -36.847627 129.626513 17.563090 6.551261 21.797258 14.259436 13.690134 6.613389 22.021652 14.079772 0.000000 0.000000 0.000000 32.131594 -1.474612 3.028691 21.730132 3.823968 -7.687172 19.500571 1.648117 -1.989212 -0.594303 -0.508765 2.180888 0.000000 0.000000 0.000000 20.457803 2.177294 -2.180178 4.520789 -0.960293 1.935140 0.005209 -5.985083 6.523424 0.000000 0.000000 0.000000 18.944004 1.737182 -2.328649 0.452990 -28.573586 -9.122866 0.506388 -4.536411 -0.090971 -59.329195 -42.672515 -51.801951 2.378918 -57.586998 3.920588 0.000000 0.000000 0.000000 17.983376 1.501083 -1.873059 -0.945625 9.388018 4.459523 -0.718103 -5.065809 -1.431087 -51.000551 20.121276 55.284186 -2.312486 68.906104 1.231151 0.000000 0.000000 0.000000 
1.366739 37.235405 -33.012501 0.000000 0.000000 0.000000 34.309560 -6.334142 4.475796 -63.945262 -45.150248 26.128612 129.992188 -21.132967 -10.220442 34.358970 6.252990 -17.150431 -0.630537 5.103245 39.406872 0.000000 0.000000 0.000000 33.591611 -0.159545 1.973197 -57.077067 41.656146 -34.191398 130.076254 17.422382 6.472339 22.798482 13.513009 14.444155 6.837809 22.388506 14.059323 0.000000 0.000000 0.000000 30.008170 -3.239641 3.102823 21.363010 3.453672 -8.048207 20.019452 1.470986 -2.320138 -0.757535 -0.868889 2.319698 0.000000 0.000000 0.000000 20.869592 2.044209 -2.501459 4.977862 -0.647973 1.432210 2.118076 -5.529540 7.335005 0.000000 0.000000 0.000000 19.464277 1.580222 -2.555804 0.293192 -25.082632 -10.836671 0.619193 -4.814370 0.187032 -58.270461 -41.158399 -51.493496 2.584763 -60.558902 4.533442 0.000000 0.000000 0.000000 18.348403 1.283203 -2.161260 -0.745269 8.940467 4.576170 -0.942702 -5.296022 -1.129479 -53.202696 21.515504 59.817376 -2.537245 68.521113 1.712165 0.000000 0.000000 0.000000 
1.303594 37.000702 -33.962444 0.000000 0.000000 0.000000 32.664335 -7.253774 4.134974 -59.598462 -46.008164 28.477724 129.608235 -21.587088 -10.540631 33.916021 6.418372 -16.753023 -0.100673 5.200551 39.502286 0.000000 0.000000 0.000000 31.610969 -1.079927 1.747804 -57.189252 42.578409 -31.310991 130.481024 17.148378 6.288235 23.314325 12.675013 15.106189 7.254894 22.768512 13.990125 0.000000 0.000000 0.000000 28.073729 -4.968135 3.125835 21.173462 3.096268 -8.353721 20.299223 1.251625 -2.494613 -1.295707 -1.280657 2.597972 0.000000 0.000000 0.000000 21.055260 1.853685 -2.686012 5.569621 -0.323794 1.106212 4.129248 -5.083717 7.972549 0.000000 0.000000 0.000000 19.757231 1.353212 -2.642013 0.240579 -21.994278 -12.090747 0.762160 -4.522220 0.429343 -57.068133 -39.078757 -51.886772 2.474254 -63.387939 4.758382 0.000000 0.000000 0.000000 18.491009 1.049697 -2.305408 -0.537593 8.726344 4.530314 -1.387512 -5.643572 -0.722034 -55.000966 23.132235 64.416108 -3.110696 66.794011 2.508876 0.000000 0.000000 0.000000 
1.345622 36.863449 -34.856350 0.000000 0.000000 0.000000 31.231494 -8.234973 4.036798 -55.551196 -45.689833 29.817061 129.391705 -21.386965 -10.460588 32.190121 6.855128 -16.492849 -0.241344 5.052241 39.739550 0.000000 0.000000 0.000000 29.871139 -2.135762 1.727046 -57.188867 42.782833 -28.553155 130.904223 16.808416 6.018643 23.416537 11.894365 15.699579 7.523110 23.114089 13.913625 0.000000 0.000000 0.000000 26.443521 -6.426375 3.075415 21.186629 2.780121 -8.586980 20.391791 1.015180 -2.514305 -1.398283 -1.703331 2.844976 0.000000 0.000000 0.000000 21.045773 1.627105 -2.743514 6.109087 -0.006580 1.009548 5.864804 -4.760304 8.400243 0.000000 0.000000 0.000000 19.878243 1.070394 -2.619435 0.232080 -19.739078 -12.792710 0.904631 -3.823773 0.557759 -55.828863 -36.875713 -52.841588 1.770518 -64.960522 4.296011 0.000000 0.000000 0.000000 18.458561 0.830642 -2.313026 -0.348057 8.706762 4.295814 -1.911143 -5.976216 -0.334886 -56.282094 25.163935 68.547867 -3.676383 63.438155 3.214580 0.000000 0.000000 0.000000 
1.448681 36.787086 -35.531368 0.000000 0.000000 0.000000 30.060844 -9.328599 4.129108 -52.547797 -44.527263 29.930353 129.692124 -20.726948 -9.646432 30.118979 7.145869 -16.596776 -1.065764 4.655829 40.167014 0.000000 0.000000 0.000000 28.419678 -3.185181 1.818978 -56.983998 42.491293 -26.271607 131.231184 16.514754 5.743140 23.212562 11.335768 16.199998 7.556478 23.403647 13.912692 0.000000 0.000000 0.000000 25.098853 -7.371302 2.909592 21.412390 2.530189 -8.695171 20.297828 0.786636 -2.446461 -1.636113 -1.976467 3.109836 0.000000 0.000000 0.000000 20.852272 1.405749 -2.723291 6.485404 0.255459 1.134437 7.215247 -4.551747 8.640492 0.000000 0.000000 0.000000 19.829303 0.763458 -2.539603 0.198929 -18.476649 -12.993397 0.842188 -2.978192 0.543671 -54.494142 -34.850364 -54.184567 0.655267 -65.090842 3.299919 0.000000 0.000000 0.000000 18.254261 0.649924 -2.231147 -0.173457 8.761845 3.880822 -2.375549 -6.136471 -0.040011 -56.769401 27.611251 71.773936 -4.034948 59.102447 3.588359 0.000000 0.000000 0.000000 
1.621147 36.731621 -36.017010 0.000000 0.000000 0.000000 29.057551 -10.442434 4.299918 -51.132152 -42.795199 28.907017 130.609131 -19.639890 -8.208780 28.579974 7.252063 -17.082467 -1.931597 4.266064 40.560788 0.000000 0.000000 0.000000 27.368609 -4.214336 1.970232 -56.706140 41.960806 -24.581622 131.316862 16.320776 5.488638 22.814866 11.099558 16.530840 7.455715 23.632280 13.999896 0.000000 0.000000 0.000000 24.020129 -7.756664 2.626176 21.763254 2.386901 -8.642718 19.947970 0.590902 -2.343189 -1.865652 -2.112025 3.123462 0.000000 0.000000 0.000000 20.387054 1.217417 -2.666457 6.654179 0.460348 1.431035 8.144730 -4.625872 8.828662 0.000000 0.000000 0.000000 19.506336 0.477632 -2.451059 0.113830 -18.068728 -12.845845 0.663097 -2.214134 0.229724 -53.113829 -33.067289 -55.586699 -0.363361 -64.360394 2.250702 0.000000 0.000000 0.000000 17.783111 0.503545 -2.113560 -0.033956 8.789151 3.298891 -2.601834 -6.206963 0.233224 -56.315104 30.503468 74.035474 -4.129423 55.051571 3.614107 0.000000 0.000000 0.000000 
1.805801 36.683773 -36.066525 0.000000 0.000000 0.000000 28.232266 -11.658843 4.476788 -51.145993 -40.693775 27.098132 131.912263 -18.103509 -6.569684 27.729229 7.505345 -17.737643 -2.080316 4.198101 40.597162 0.000000 0.000000 0.000000 26.671481 -5.323280 2.131397 -56.327180 41.448679 -23.490008 131.108309 16.232920 5.346588 22.413614 11.223592 16.637668 7.280085 23.806056 14.183221 0.000000 0.000000 0.000000 23.159896 -7.592823 2.246383 22.179233 2.364524 -8.392697 19.267487 0.448861 -2.236275 -1.934217 -2.050866 2.821577 0.000000 0.000000 0.000000 19.561576 1.090048 -2.597415 6.617462 0.574239 1.792779 8.694033 -5.088268 9.091278 0.000000 0.000000 0.000000 18.831832 0.253127 -2.342541 -0.023061 -18.246517 -12.543544 0.412442 -1.583975 -0.282686 -51.348532 -31.530752 -56.672378 -1.130663 -63.672847 1.343303 0.000000 0.000000 0.000000 16.949340 0.383983 -1.983485 0.067045 8.680162 2.700529 -2.548652 -6.268602 0.389856 -54.838595 33.531786 75.348277 -4.054898 52.271137 3.421191 0.000000 0.000000 0.000000 
